<svg xmlns="http://www.w3.org/2000/svg" xmlns:xlink="http://www.w3.org/1999/xlink" viewBox="0 0 144.27 148.46">
    <defs>
        <style>
            .cls-1,.cls-2{stroke:#41469b;stroke-miterlimit:10;stroke-width:0.25px;}.cls-1{fill:url(#未命名的渐变_25);}.cls-2{fill:url(#未命名的渐变_25-2);}
        </style>
        <linearGradient id="未命名的渐变_25" x1="0.13" y1="74.23" x2="101.65" y2="74.23" gradientUnits="userSpaceOnUse">
            <stop offset="0" stop-color="#ecbfd8"/>
            <stop offset="1" stop-color="#a4bce2"/>
        </linearGradient>
        <linearGradient id="未命名的渐变_25-2" x1="42.62" y1="74.23" x2="144.14" y2="74.23"
                        xlink:href="#未命名的渐变_25"/>
    </defs>
    <g id="图层_2">
        <g id="图层_1-2">
            <path class="cls-1"
                  d="M32,41.92c1.07-4.38,3.52-13.07,10.75-18.67a24.08,24.08,0,0,1,19.52-4.79l-6.6,41.42H87.18l3.7,13.79L101.65,6.06A69.7,69.7,0,0,0,75.13.84h-5a70,70,0,0,0-70,70h0A70.08,70.08,0,0,0,3,90.76a68.69,68.69,0,0,0,3,8.15c.21.49.39.87.46,1l0,.07c.16.35,2.53,14.3,8,47.61C21.51,95.8,28.29,57.14,32,41.92Z"/>
            <path class="cls-2"
                  d="M112.27,106.54c-1.07,4.38-3.52,13.07-10.75,18.67A24.12,24.12,0,0,1,82,130l6.6-41.42H57.09l-3.7-13.79L42.62,142.4a69.81,69.81,0,0,0,26.52,5.22h5a70,70,0,0,0,70-70h0a69.41,69.41,0,0,0-5.86-28.08l-.46-1,0-.07c-.16-.35-2.53-14.3-8.06-47.61C122.76,52.66,116,91.31,112.27,106.54Z"/>
        </g>
    </g>
</svg>
